<svg width="448" height="407" viewBox="0 0 448 407" fill="none" xmlns="http://www.w3.org/2000/svg">
<path d="M244.82 168.109C258.33 179.689 269.138 194.357 271.84 210.376C274.542 226.395 269.138 243.765 260.26 259.398C251.575 275.031 239.416 288.927 223.783 295.489C208.343 302.244 189.236 301.858 170.708 296.647C151.987 291.243 133.845 281.4 123.037 265.574C112.422 249.941 109.141 228.518 115.124 211.341C121.107 193.971 136.354 180.847 151.794 169.653C167.234 158.459 182.867 149.388 198.886 148.809C214.905 148.423 231.31 156.529 244.82 168.109Z" fill="url(#paint0_linear_296_42)"/>
<defs>
<linearGradient id="paint0_linear_296_42" x1="112.157" y1="300.56" x2="263.69" y2="140.423" gradientUnits="userSpaceOnUse">
<stop stop-color="#FF6F91"/>
<stop offset="1" stop-color="#D65DB1"/>
</linearGradient>
</defs>
</svg>
