<svg width="94" height="94" viewBox="0 0 94 94" fill="none" xmlns="http://www.w3.org/2000/svg">
<path d="M71.4396 16.92C77.2676 22.842 79.6176 31.866 80.6516 40.608C81.6856 49.444 81.4036 58.092 78.2076 66.176C74.9176 74.26 68.6196 81.78 60.6296 85.07C52.5456 88.266 42.6756 87.232 33.4636 84.036C24.3456 80.746 15.8856 75.294 11.7496 67.586C7.5196 59.878 7.7076 50.008 10.4336 41.642C13.2536 33.276 18.7056 26.508 25.1916 20.774C31.7716 15.04 39.3856 10.34 47.8456 9.30601C56.3056 8.27201 65.6116 11.092 71.4396 16.92Z" fill="url(#paint0_linear_296_15)"/>
<defs>
<linearGradient id="paint0_linear_296_15" x1="8.46582" y1="87.0117" x2="86.1966" y2="14.4623" gradientUnits="userSpaceOnUse">
<stop stop-color="#008E9B"/>
<stop offset="1" stop-color="#F9F871"/>
</linearGradient>
</defs>
</svg>
