<svg width="448" height="407" viewBox="0 0 448 407" fill="none" xmlns="http://www.w3.org/2000/svg">
<path d="M381.24 71.738C411.06 97.298 434.916 129.674 440.88 165.032C446.844 200.39 434.916 238.73 415.32 273.236C396.15 307.742 369.312 338.414 334.806 352.898C300.726 367.808 258.552 366.956 217.656 355.454C176.334 343.526 136.29 321.8 112.434 286.868C89.0038 252.362 81.7618 205.076 94.9678 167.162C108.174 128.822 141.828 99.854 175.908 75.146C209.988 50.438 244.494 30.416 279.852 29.138C315.21 28.286 351.42 46.178 381.24 71.738Z" fill="url(#paint0_linear_296_38)"/>
<defs>
<linearGradient id="paint0_linear_296_38" x1="88.4199" y1="364.091" x2="422.892" y2="10.6281" gradientUnits="userSpaceOnUse">
<stop stop-color="#FF6F91"/>
<stop offset="1" stop-color="#D65DB1"/>
</linearGradient>
</defs>
</svg>
