<svg width="158" height="158" viewBox="0 0 158 158" fill="none" xmlns="http://www.w3.org/2000/svg">
<path d="M116.92 33.654C127.98 43.134 136.828 55.142 139.04 68.256C141.252 81.37 136.828 95.59 129.56 108.388C122.45 121.186 112.496 132.562 99.698 137.934C87.058 143.464 71.416 143.148 56.248 138.882C40.922 134.458 26.07 126.4 17.222 113.444C8.53198 100.646 5.84598 83.108 10.744 69.046C15.642 54.826 28.124 44.082 40.764 34.918C53.404 25.754 66.202 18.328 79.316 17.854C92.43 17.538 105.86 24.174 116.92 33.654Z" fill="url(#paint0_linear_296_17)"/>
<defs>
<linearGradient id="paint0_linear_296_17" x1="8.31543" y1="142.085" x2="132.368" y2="10.9888" gradientUnits="userSpaceOnUse">
<stop stop-color="#FFC75F"/>
<stop offset="1" stop-color="#F9F871"/>
</linearGradient>
</defs>
</svg>
