<svg width="448" height="407" viewBox="0 0 448 407" fill="none" xmlns="http://www.w3.org/2000/svg">
<path d="M343.68 166.74C361.846 185.199 369.171 213.327 372.394 240.576C375.617 268.118 374.738 295.074 364.776 320.272C354.521 345.47 334.89 368.91 309.985 379.165C284.787 389.127 254.022 385.904 225.308 375.942C196.887 365.687 170.517 348.693 157.625 324.667C144.44 300.641 145.026 269.876 153.523 243.799C162.313 217.722 179.307 196.626 199.524 178.753C220.034 160.88 243.767 146.23 270.137 143.007C296.507 139.784 325.514 148.574 343.68 166.74Z" fill="url(#paint0_linear_296_41)"/>
<defs>
<linearGradient id="paint0_linear_296_41" x1="147.39" y1="385.217" x2="389.678" y2="159.079" gradientUnits="userSpaceOnUse">
<stop stop-color="#008E9B"/>
<stop offset="1" stop-color="#F9F871"/>
</linearGradient>
</defs>
</svg>
