<svg width="448" height="407" viewBox="0 0 448 407" fill="none" xmlns="http://www.w3.org/2000/svg">
<path d="M251.16 112.492C271.04 129.532 286.944 151.116 290.92 174.688C294.896 198.26 286.944 223.82 273.88 246.824C261.1 269.828 243.208 290.276 220.204 299.932C197.484 309.872 169.368 309.304 142.104 301.636C114.556 293.684 87.8595 279.2 71.9555 255.912C56.3355 232.908 51.5075 201.384 60.3115 176.108C69.1155 150.548 91.5515 131.236 114.272 114.764C136.992 98.292 159.996 84.944 183.568 84.092C207.14 83.524 231.28 95.452 251.16 112.492Z" fill="url(#paint0_linear_296_40)"/>
<defs>
<linearGradient id="paint0_linear_296_40" x1="55.9463" y1="307.394" x2="278.928" y2="71.752" gradientUnits="userSpaceOnUse">
<stop stop-color="#008E9B"/>
<stop offset="1" stop-color="#2C73D2"/>
</linearGradient>
</defs>
</svg>
