<svg width="154" height="88" viewBox="0 0 154 88" fill="none" xmlns="http://www.w3.org/2000/svg">
<path d="M20.5105 12.5583V54.2667H15.0677V12.5583H20.5105ZM33.9168 12.5583V17.0843H1.69019V12.5583H33.9168ZM71.4141 32.0948V34.7302C71.4141 37.8622 71.0227 40.6695 70.2396 43.1521C69.4567 45.6347 68.3299 47.745 66.8594 49.4828C65.3889 51.2207 63.6225 52.5479 61.56 53.4646C59.5165 54.3812 57.2249 54.8396 54.685 54.8396C52.2215 54.8396 49.9584 54.3812 47.8958 53.4646C45.8525 52.5479 44.0765 51.2207 42.5677 49.4828C41.0782 47.745 39.9229 45.6347 39.1017 43.1521C38.2805 40.6695 37.8699 37.8622 37.8699 34.7302V32.0948C37.8699 28.9629 38.271 26.165 39.073 23.7016C39.8942 21.2189 41.0496 19.1086 42.5391 17.3709C44.0287 15.6138 45.7953 14.2771 47.8386 13.3604C49.9011 12.4438 52.1641 11.9854 54.6277 11.9854C57.1677 11.9854 59.4593 12.4438 61.5027 13.3604C63.5651 14.2771 65.3317 15.6138 66.8022 17.3709C68.2918 19.1086 69.428 21.2189 70.211 23.7016C71.0132 26.165 71.4141 28.9629 71.4141 32.0948ZM65.9427 34.7302V32.0376C65.9427 29.5548 65.685 27.3586 65.1694 25.449C64.6729 23.5393 63.9377 21.935 62.9636 20.6364C61.9896 19.3379 60.7961 18.3543 59.3829 17.686C57.9889 17.0176 56.4037 16.6833 54.6277 16.6833C52.9089 16.6833 51.3525 17.0176 49.9584 17.686C48.5834 18.3543 47.3994 19.3379 46.4063 20.6364C45.4324 21.935 44.678 23.5393 44.1434 25.449C43.6086 27.3586 43.3413 29.5548 43.3413 32.0376V34.7302C43.3413 37.2319 43.6086 39.4472 44.1434 41.376C44.678 43.2857 45.442 44.8995 46.435 46.2172C47.4472 47.5158 48.6408 48.4993 50.0158 49.1677C51.4098 49.8362 52.9663 50.1703 54.685 50.1703C56.4801 50.1703 58.0748 49.8362 59.4689 49.1677C60.8629 48.4993 62.0374 47.5158 62.9922 46.2172C63.9663 44.8995 64.7015 43.2857 65.198 41.376C65.6946 39.4472 65.9427 37.2319 65.9427 34.7302ZM90.9792 54.2667H82.271L82.3282 49.7693H90.9792C93.9584 49.7693 96.441 49.1486 98.4272 47.9074C100.413 46.6469 101.903 44.89 102.896 42.6364C103.908 40.3638 104.414 37.7093 104.414 34.6729V32.1234C104.414 29.7362 104.128 27.6165 103.555 25.7641C102.982 23.8926 102.142 22.317 101.034 21.0376C99.9263 19.7388 98.5703 18.7554 96.9662 18.0869C95.3812 17.4186 93.5574 17.0843 91.4949 17.0843H82.0991V12.5583H91.4949C94.2258 12.5583 96.7179 13.0167 98.9715 13.9333C101.225 14.8309 103.163 16.1391 104.787 17.8578C106.429 19.5574 107.689 21.62 108.568 24.0453C109.446 26.4516 109.886 29.1634 109.886 32.1807V34.6729C109.886 37.6903 109.446 40.4117 108.568 42.8369C107.689 45.2433 106.419 47.2962 104.758 48.9958C103.116 50.6955 101.129 52.0036 98.7996 52.9203C96.4888 53.8179 93.882 54.2667 90.9792 54.2667ZM85.2215 12.5583V54.2667H79.6927V12.5583H85.2215ZM150.304 32.0948V34.7302C150.304 37.8622 149.914 40.6695 149.131 43.1521C148.348 45.6347 147.221 47.745 145.75 49.4828C144.28 51.2207 142.513 52.5479 140.451 53.4646C138.407 54.3812 136.116 54.8396 133.576 54.8396C131.112 54.8396 128.849 54.3812 126.787 53.4646C124.743 52.5479 122.967 51.2207 121.458 49.4828C119.969 47.745 118.813 45.6347 117.992 43.1521C117.171 40.6695 116.761 37.8622 116.761 34.7302V32.0948C116.761 28.9629 117.162 26.165 117.964 23.7016C118.785 21.2189 119.94 19.1086 121.43 17.3709C122.919 15.6138 124.686 14.2771 126.729 13.3604C128.792 12.4438 131.055 11.9854 133.518 11.9854C136.058 11.9854 138.35 12.4438 140.393 13.3604C142.456 14.2771 144.222 15.6138 145.693 17.3709C147.183 19.1086 148.318 21.2189 149.101 23.7016C149.904 26.165 150.304 28.9629 150.304 32.0948ZM144.833 34.7302V32.0376C144.833 29.5548 144.576 27.3586 144.06 25.449C143.563 23.5393 142.828 21.935 141.854 20.6364C140.88 19.3379 139.687 18.3543 138.273 17.686C136.879 17.0176 135.294 16.6833 133.518 16.6833C131.8 16.6833 130.243 17.0176 128.849 17.686C127.474 18.3543 126.29 19.3379 125.297 20.6364C124.323 21.935 123.569 23.5393 123.034 25.449C122.499 27.3586 122.232 29.5548 122.232 32.0376V34.7302C122.232 37.2319 122.499 39.4472 123.034 41.376C123.569 43.2857 124.332 44.8995 125.326 46.2172C126.338 47.5158 127.531 48.4993 128.906 49.1677C130.3 49.8362 131.857 50.1703 133.576 50.1703C135.371 50.1703 136.965 49.8362 138.359 49.1677C139.754 48.4993 140.928 47.5158 141.883 46.2172C142.857 44.8995 143.592 43.2857 144.089 41.376C144.585 39.4472 144.833 37.2319 144.833 34.7302Z" fill="white"/>
<path d="M52.502 70.274L52.5363 70.0105C52.628 69.1778 52.8342 68.3757 53.1551 67.6042C53.4835 66.8326 53.9151 66.1452 54.4499 65.5417C54.9846 64.9381 55.6187 64.4646 56.352 64.1209C57.0853 63.7771 57.9027 63.6167 58.8041 63.6396C59.6749 63.6548 60.4197 63.842 61.0385 64.201C61.6649 64.56 62.169 65.0376 62.5509 65.6333C62.9406 66.2215 63.2118 66.8862 63.3644 67.6271C63.5173 68.3681 63.5554 69.1319 63.479 69.9188L63.4561 70.1824C63.3568 71.015 63.143 71.8131 62.8144 72.5771C62.486 73.341 62.0506 74.0209 61.5082 74.6167C60.9735 75.2124 60.3394 75.6824 59.6061 76.026C58.8728 76.3622 58.0592 76.5188 57.1656 76.4958C56.3023 76.4805 55.5575 76.2972 54.9311 75.9458C54.3123 75.5869 53.812 75.1131 53.4301 74.525C53.0482 73.9369 52.7808 73.276 52.628 72.5427C52.4752 71.8093 52.4332 71.0531 52.502 70.274ZM54.5989 70.0105L54.5759 70.2855C54.5225 70.7667 54.5187 71.267 54.5644 71.7864C54.618 72.3059 54.7401 72.7872 54.9311 73.2302C55.1297 73.6733 55.4163 74.0362 55.7906 74.3188C56.1649 74.6014 56.6499 74.7503 57.2457 74.7657C57.8797 74.7809 58.4375 74.6586 58.9187 74.399C59.3999 74.1316 59.8085 73.7726 60.1447 73.3219C60.4885 72.8712 60.7596 72.3709 60.9582 71.8209C61.1644 71.2709 61.302 70.7247 61.3708 70.1824L61.3937 69.9188C61.4471 69.4376 61.4471 68.9372 61.3937 68.4177C61.3478 67.8907 61.2256 67.4017 61.027 66.951C60.8361 66.4927 60.5534 66.1222 60.179 65.8396C59.8047 65.5493 59.3197 65.3965 58.7239 65.3812C58.0899 65.3583 57.5284 65.4843 57.0394 65.7593C56.5582 66.0267 56.1496 66.3896 55.8134 66.8479C55.4773 67.3062 55.2061 67.8143 54.9999 68.3719C54.8013 68.9219 54.6675 69.4681 54.5989 70.0105ZM68.8301 65.9083L67.0311 76.2667H64.9572L67.1113 63.8688H69.128L68.8301 65.9083ZM72.852 63.7657L72.6572 65.7593C72.4968 65.7288 72.3325 65.7021 72.1644 65.6791C72.0041 65.6562 71.8437 65.6448 71.6832 65.6448C71.1868 65.6372 70.7399 65.7136 70.3425 65.874C69.953 66.0267 69.6054 66.2445 69.2999 66.5271C69.002 66.8098 68.7461 67.142 68.5322 67.524C68.3259 67.9059 68.1618 68.3184 68.0394 68.7614L67.3863 69.1052C67.4704 68.4864 67.6079 67.8524 67.7989 67.2031C67.9975 66.5538 68.2687 65.9542 68.6123 65.4042C68.9637 64.8542 69.403 64.4112 69.9301 64.075C70.4649 63.7388 71.1065 63.5824 71.8551 63.6052C72.0232 63.6052 72.1875 63.6205 72.3478 63.651C72.5158 63.6816 72.6839 63.7198 72.852 63.7657ZM82.202 66.6417L80.529 76.2667H78.4551L80.6092 63.8688H82.5687L82.202 66.6417ZM81.2394 69.5979L80.3916 69.575C80.4985 68.834 80.6932 68.1083 80.9759 67.3979C81.2663 66.6798 81.6444 66.0343 82.1103 65.4614C82.5839 64.8886 83.1454 64.4379 83.7947 64.1093C84.4516 63.7733 85.2002 63.6167 86.0406 63.6396C86.7051 63.6548 87.2589 63.7848 87.702 64.0291C88.1527 64.266 88.5041 64.5907 88.7561 65.0031C89.0082 65.4157 89.1763 65.8931 89.2603 66.4355C89.3444 66.9702 89.352 67.5393 89.2832 68.1427L87.9311 76.2667H85.8457L87.2208 68.1083C87.2742 67.6119 87.2551 67.165 87.1634 66.7677C87.0794 66.3629 86.8885 66.042 86.5906 65.8052C86.3002 65.5607 85.8801 65.4309 85.3301 65.4157C84.7496 65.4003 84.2263 65.5112 83.7603 65.7479C83.2944 65.9848 82.8856 66.3093 82.5342 66.7219C82.1906 67.1267 81.9079 67.5812 81.6863 68.0855C81.4725 68.5819 81.3235 69.0862 81.2394 69.5979ZM91.5749 70.274L91.6092 70.0105C91.7009 69.1778 91.9072 68.3757 92.228 67.6042C92.5565 66.8326 92.988 66.1452 93.5228 65.5417C94.0575 64.9381 94.6916 64.4646 95.4249 64.1209C96.1582 63.7771 96.9756 63.6167 97.877 63.6396C98.7478 63.6548 99.4925 63.842 100.111 64.201C100.738 64.56 101.242 65.0376 101.624 65.6333C102.013 66.2215 102.285 66.8862 102.437 67.6271C102.59 68.3681 102.628 69.1319 102.552 69.9188L102.529 70.1824C102.43 71.015 102.216 71.8131 101.887 72.5771C101.559 73.341 101.123 74.0209 100.581 74.6167C100.046 75.2124 99.4123 75.6824 98.679 76.026C97.9456 76.3622 97.1322 76.5188 96.2385 76.4958C95.3752 76.4805 94.6304 76.2972 94.0041 75.9458C93.3853 75.5869 92.8849 75.1131 92.503 74.525C92.1211 73.9369 91.8537 73.276 91.7009 72.5427C91.5482 71.8093 91.5061 71.0531 91.5749 70.274ZM93.6718 70.0105L93.6489 70.2855C93.5954 70.7667 93.5916 71.267 93.6375 71.7864C93.6909 72.3059 93.813 72.7872 94.0041 73.2302C94.2027 73.6733 94.4892 74.0362 94.8635 74.3188C95.2377 74.6014 95.7228 74.7503 96.3187 74.7657C96.9527 74.7809 97.5103 74.6586 97.9916 74.399C98.4728 74.1316 98.8815 73.7726 99.2175 73.3219C99.5613 72.8712 99.8325 72.3709 100.031 71.8209C100.237 71.2709 100.375 70.7247 100.444 70.1824L100.467 69.9188C100.52 69.4376 100.52 68.9372 100.467 68.4177C100.421 67.8907 100.298 67.4017 100.1 66.951C99.9089 66.4927 99.6263 66.1222 99.252 65.8396C98.8777 65.5493 98.3925 65.3965 97.7968 65.3812C97.1627 65.3583 96.6013 65.4843 96.1123 65.7593C95.6311 66.0267 95.2225 66.3896 94.8863 66.8479C94.5502 67.3062 94.279 67.8143 94.0728 68.3719C93.8742 68.9219 93.7406 69.4681 93.6718 70.0105ZM111.237 63.8688L110.951 65.4958H104.431L104.718 63.8688H111.237ZM107.445 60.8552H109.507L107.41 73.2188C107.387 73.4862 107.395 73.7267 107.433 73.9407C107.471 74.1545 107.563 74.3264 107.708 74.4562C107.853 74.5785 108.075 74.6434 108.373 74.651C108.541 74.651 108.705 74.6396 108.866 74.6167C109.034 74.5862 109.202 74.5593 109.37 74.5364L109.221 76.2781C108.976 76.3469 108.724 76.3965 108.464 76.4271C108.212 76.4653 107.96 76.4805 107.708 76.4729C107.074 76.4653 106.578 76.3048 106.219 75.9917C105.86 75.6785 105.615 75.2736 105.485 74.7771C105.355 74.2805 105.317 73.7497 105.371 73.1843L107.445 60.8552ZM124.46 63.8688L124.174 65.4958H117.654L117.941 63.8688H124.46ZM120.668 60.8552H122.73L120.633 73.2188C120.61 73.4862 120.618 73.7267 120.656 73.9407C120.694 74.1545 120.786 74.3264 120.931 74.4562C121.076 74.5785 121.298 74.6434 121.596 74.651C121.764 74.651 121.928 74.6396 122.088 74.6167C122.257 74.5862 122.425 74.5593 122.593 74.5364L122.444 76.2781C122.199 76.3469 121.947 76.3965 121.687 76.4271C121.435 76.4653 121.183 76.4805 120.931 76.4729C120.297 76.4653 119.801 76.3048 119.442 75.9917C119.083 75.6785 118.838 75.2736 118.708 74.7771C118.578 74.2805 118.54 73.7497 118.594 73.1843L120.668 60.8552ZM125.01 70.274L125.045 70.0105C125.136 69.1778 125.343 68.3757 125.663 67.6042C125.992 66.8326 126.423 66.1452 126.958 65.5417C127.493 64.9381 128.127 64.4646 128.86 64.1209C129.594 63.7771 130.411 63.6167 131.312 63.6396C132.183 63.6548 132.928 63.842 133.547 64.201C134.173 64.56 134.677 65.0376 135.059 65.6333C135.449 66.2215 135.72 66.8862 135.873 67.6271C136.026 68.3681 136.064 69.1319 135.987 69.9188L135.964 70.1824C135.865 71.015 135.651 71.8131 135.323 72.5771C134.994 73.341 134.559 74.0209 134.017 74.6167C133.482 75.2124 132.848 75.6824 132.114 76.026C131.381 76.3622 130.568 76.5188 129.674 76.4958C128.811 76.4805 128.066 76.2972 127.439 75.9458C126.821 75.5869 126.32 75.1131 125.938 74.525C125.557 73.9369 125.289 73.276 125.136 72.5427C124.984 71.8093 124.942 71.0531 125.01 70.274ZM127.107 70.0105L127.084 70.2855C127.031 70.7667 127.027 71.267 127.073 71.7864C127.126 72.3059 127.248 72.7872 127.439 73.2302C127.638 73.6733 127.925 74.0362 128.299 74.3188C128.673 74.6014 129.158 74.7503 129.754 74.7657C130.388 74.7809 130.946 74.6586 131.427 74.399C131.908 74.1316 132.317 73.7726 132.653 73.3219C132.997 72.8712 133.268 72.3709 133.467 71.8209C133.673 71.2709 133.81 70.7247 133.879 70.1824L133.902 69.9188C133.955 69.4376 133.955 68.9372 133.902 68.4177C133.856 67.8907 133.734 67.4017 133.535 66.951C133.344 66.4927 133.062 66.1222 132.687 65.8396C132.313 65.5493 131.828 65.3965 131.232 65.3812C130.598 65.3583 130.037 65.4843 129.548 65.7593C129.067 66.0267 128.658 66.3896 128.322 66.8479C127.986 67.3062 127.714 67.8143 127.508 68.3719C127.31 68.9219 127.176 69.4681 127.107 70.0105ZM142.817 71.5688L140.777 71.5802C140.846 70.9233 140.983 70.3427 141.189 69.8386C141.403 69.3343 141.682 68.8684 142.026 68.4407C142.37 68.0129 142.786 67.5812 143.275 67.1458C143.642 66.8174 144.004 66.485 144.363 66.149C144.73 65.8129 145.043 65.4462 145.303 65.049C145.57 64.6441 145.738 64.1781 145.807 63.651C145.861 63.2003 145.83 62.7917 145.716 62.425C145.601 62.0583 145.395 61.7643 145.097 61.5427C144.799 61.3212 144.409 61.2028 143.928 61.1876C143.432 61.1722 142.985 61.2562 142.587 61.4396C142.19 61.6229 141.858 61.8903 141.591 62.2417C141.331 62.5855 141.151 62.9979 141.052 63.4791L138.989 63.4907C139.096 62.6122 139.387 61.8598 139.86 61.2333C140.334 60.6069 140.934 60.1333 141.659 59.8124C142.393 59.484 143.191 59.3274 144.054 59.3427C144.902 59.3657 145.628 59.5566 146.231 59.9157C146.843 60.267 147.297 60.7598 147.595 61.3938C147.9 62.0278 148.014 62.7688 147.938 63.6167C147.869 64.3576 147.652 65.026 147.285 65.6219C146.926 66.2177 146.483 66.7638 145.956 67.2605C145.437 67.7569 144.91 68.2267 144.375 68.6698C143.909 69.0517 143.554 69.4833 143.309 69.9646C143.072 70.4458 142.908 70.9805 142.817 71.5688ZM139.963 75.2355C139.971 74.8764 140.086 74.5785 140.307 74.3417C140.536 74.0972 140.83 73.9712 141.189 73.9636C141.548 73.9559 141.843 74.0667 142.072 74.2958C142.301 74.525 142.412 74.8191 142.404 75.1781C142.404 75.5295 142.289 75.8236 142.06 76.0605C141.831 76.2896 141.537 76.4081 141.178 76.4157C140.827 76.4233 140.536 76.3164 140.307 76.0948C140.078 75.8733 139.963 75.5869 139.963 75.2355Z" fill="#9E9C9C"/>
</svg>
