<svg width="19" height="21" viewBox="0 0 19 21" fill="none" xmlns="http://www.w3.org/2000/svg">
<path d="M18.3213 10.5C18.3213 11.2256 17.7136 11.8129 16.9642 11.8129H10.857V17.7192C10.857 18.4447 10.2493 19.0312 9.4999 19.0312C8.7505 19.0312 8.14275 18.4447 8.14275 17.7192V11.8129H2.03561C1.28621 11.8129 0.678467 11.2256 0.678467 10.5C0.678467 9.77443 1.28621 9.18791 2.03561 9.18791H8.14275V3.28166C8.14275 2.55609 8.7505 1.96875 9.4999 1.96875C10.2493 1.96875 10.857 2.55609 10.857 3.28166V9.18791H16.9642C17.7149 9.1875 18.3213 9.77402 18.3213 10.5Z" fill="white"/>
</svg>
